<svg width="44" height="44" viewBox="0 0 44 44" fill="none" xmlns="http://www.w3.org/2000/svg">
<g clip-path="url(#clip0_1_1844)">
<path fill-rule="evenodd" clip-rule="evenodd" d="M7.6295 8.35008C7.6604 8.28078 7.6781 8.20638 7.6808 8.13078C7.6829 8.07528 7.8995 2.57658 9.1178 0.300483C9.7292 0.256383 11.9669 2.58318 13.9064 5.27988C14.0663 5.50128 14.36 5.58708 14.6132 5.47788C14.6942 5.44218 16.7807 4.65408 19.871 5.72208C20.1242 5.81028 20.4044 5.71548 20.5526 5.49198C21.7154 3.74058 23.984 0.860883 25.1198 0.589383C25.196 0.571383 25.2563 0.570483 25.2857 0.585783C26.1737 1.06158 26.5625 5.43708 26.4137 9.21768C26.4101 9.31998 26.4329 9.42198 26.4803 9.51318C26.6279 9.79488 30.02 16.4654 23.7869 21.1064C23.7686 21.1196 21.9467 22.442 19.3046 23.0735C16.2341 23.8076 13.3946 23.3258 10.865 21.6425C5.264 17.9141 6.1955 11.5328 7.6295 8.35008Z" stroke="#DDAD26" stroke-width="1.2" stroke-linecap="round" stroke-linejoin="round"/>
<path fill-rule="evenodd" clip-rule="evenodd" d="M9.70596 7.03114C9.76566 7.01704 9.82446 6.99274 9.87966 6.95824C10.4584 6.59884 11.5456 5.98714 11.9986 5.87884C12.3139 5.80354 12.5089 5.48674 12.4333 5.17084C12.3577 4.85494 12.0409 4.66024 11.725 4.73584C10.9408 4.92334 9.42876 5.85484 9.25896 5.96104C8.98326 6.13174 8.89866 6.49414 9.07026 6.77014C9.20736 6.99034 9.46656 7.08844 9.70596 7.03114Z" fill="#DDAD26"/>
<path fill-rule="evenodd" clip-rule="evenodd" d="M22.2622 6.5719C22.2748 6.5725 23.5642 6.6736 24.4327 7.7083C24.5809 7.8844 24.8101 7.9519 25.0198 7.9018C25.1056 7.8811 25.1884 7.8406 25.2607 7.7803C25.5094 7.5718 25.5418 7.201 25.333 6.9526C24.1276 5.5165 22.4017 5.4028 22.3285 5.3983C22.0054 5.3812 21.727 5.6272 21.7087 5.9521C21.6901 6.2755 21.9379 6.5533 22.2622 6.5719Z" fill="#DDAD26"/>
<path fill-rule="evenodd" clip-rule="evenodd" d="M15.3409 19.9871C15.4159 20.9504 16.7857 21.3479 16.7857 21.3479C16.7857 21.3479 17.923 20.9177 18.1354 20.0495C18.3478 19.1816 15.2659 19.0241 15.3409 19.9871Z" fill="#DDAD26"/>
<path fill-rule="evenodd" clip-rule="evenodd" d="M10.4796 16.3802C10.4946 16.3802 11.9991 16.3892 12.7281 17.7497C12.8568 17.9906 13.1292 18.1049 13.3824 18.044C13.4304 18.0326 13.4778 18.0149 13.5237 17.9903C13.764 17.8619 13.8786 17.5898 13.818 17.3369C13.8066 17.2883 13.7889 17.2409 13.7643 17.1953C12.7047 15.2177 10.5648 15.2048 10.4742 15.2051C10.1514 15.2084 9.88767 15.4703 9.88917 15.7949C9.88947 15.8417 9.89517 15.8864 9.90537 15.9299C9.96717 16.1894 10.2015 16.3814 10.4796 16.3802Z" fill="#DDAD26"/>
<path fill-rule="evenodd" clip-rule="evenodd" d="M20.1707 18.139C20.4191 18.2176 20.6987 18.1231 20.8448 17.8921C21.6689 16.5874 23.1701 16.6858 23.1851 16.6867C23.4626 16.7077 23.7098 16.5331 23.7899 16.2784C23.8034 16.2358 23.8121 16.1917 23.8157 16.1452C23.8403 15.8215 23.5961 15.5413 23.2745 15.5149C23.1842 15.508 21.0488 15.3682 19.8506 17.2651C19.823 17.3086 19.8017 17.3551 19.787 17.4025C19.7084 17.6506 19.8029 17.9302 20.0336 18.0754C20.0777 18.103 20.1236 18.1243 20.1707 18.139Z" fill="#DDAD26"/>
<path fill-rule="evenodd" clip-rule="evenodd" d="M30.4002 12.3133L26.2002 9.51343L24.1002 10.9132L22.0002 9.51343L19.9002 10.9132L17.8002 9.51343L15.7002 10.9132L13.6002 9.51343L11.5002 10.9132L9.40024 9.51343L7.30024 10.9132L5.20024 9.51343L3.10024 10.9132L1.00024 9.51343V43.1134H13.6002H26.2002H34.6002V9.51343L30.4002 12.3133Z" fill="#027747"/>
<path fill-rule="evenodd" clip-rule="evenodd" d="M30.4002 12.3133L26.2002 9.51343V43.1134L30.4002 38.9134V12.3133Z" stroke="#DDAD26" stroke-width="1.2" stroke-linecap="round" stroke-linejoin="round"/>
<path fill-rule="evenodd" clip-rule="evenodd" d="M30.4001 12.3133V38.9134L34.6001 43.1134V9.51343L30.4001 12.3133Z" stroke="#DDAD26" stroke-width="1.2" stroke-linecap="round" stroke-linejoin="round"/>
<path fill-rule="evenodd" clip-rule="evenodd" d="M26.2002 43.1133H34.6002L30.4002 38.9133L26.2002 43.1133Z" stroke="#DDAD26" stroke-width="1.2" stroke-linecap="round" stroke-linejoin="round"/>
<path fill-rule="evenodd" clip-rule="evenodd" d="M24.1002 10.9132L22.0002 9.51312L19.9002 10.9132L17.8002 9.51312L15.7002 10.9132L13.6002 9.51312L11.5002 10.9132L9.40024 9.51312L7.30024 10.9132L5.20024 9.51312L3.10024 10.9132L1.00024 9.51312V43.1131H13.6002H26.2002V9.51312L24.1002 10.9132Z" stroke="#DDAD26" stroke-width="1.2" stroke-linecap="round" stroke-linejoin="round"/>
<circle cx="34.5" cy="10.5" r="8.5" fill="white"/>
<path d="M31.141 11.68C31.141 10.904 31.225 10.224 31.393 9.64C31.561 9.056 31.809 8.568 32.137 8.176C32.425 7.824 32.753 7.58 33.121 7.444C33.497 7.308 33.957 7.24 34.501 7.24C35.045 7.24 35.501 7.308 35.869 7.444C36.245 7.58 36.577 7.824 36.865 8.176C37.193 8.568 37.441 9.056 37.609 9.64C37.777 10.224 37.861 10.904 37.861 11.68C37.861 12.456 37.777 13.136 37.609 13.72C37.441 14.304 37.193 14.792 36.865 15.184C36.577 15.536 36.245 15.78 35.869 15.916C35.501 16.052 35.045 16.12 34.501 16.12C33.957 16.12 33.497 16.052 33.121 15.916C32.753 15.78 32.425 15.536 32.137 15.184C31.809 14.792 31.561 14.304 31.393 13.72C31.225 13.136 31.141 12.456 31.141 11.68ZM36.517 11.68C36.517 10.976 36.473 10.372 36.385 9.868C36.297 9.364 36.161 8.956 35.977 8.644C35.825 8.388 35.637 8.2 35.413 8.08C35.189 7.952 34.885 7.888 34.501 7.888C34.117 7.888 33.813 7.952 33.589 8.08C33.365 8.2 33.177 8.388 33.025 8.644C32.841 8.956 32.705 9.364 32.617 9.868C32.529 10.372 32.485 10.976 32.485 11.68C32.485 12.384 32.529 12.988 32.617 13.492C32.705 13.996 32.841 14.404 33.025 14.716C33.177 14.972 33.365 15.164 33.589 15.292C33.813 15.412 34.117 15.472 34.501 15.472C34.885 15.472 35.189 15.412 35.413 15.292C35.637 15.164 35.825 14.972 35.977 14.716C36.161 14.404 36.297 13.996 36.385 13.492C36.473 12.988 36.517 12.384 36.517 11.68Z" fill="#027747"/>
</g>
<defs>
<clipPath id="clip0_1_1844">
<rect width="43" height="43" fill="white" transform="translate(0.400146 0.213135)"/>
</clipPath>
</defs>
</svg>
