<svg width="36" height="21" viewBox="0 0 36 21" fill="none" xmlns="http://www.w3.org/2000/svg">
<rect x="0.00366211" width="35" height="21" rx="3" fill="#037847"/>
<path d="M7.55566 9.402H11.2627V10.788H7.55566V9.402ZM7.68766 12.57H11.8787V14H5.91666V6.3H11.7357V7.73H7.68766V12.57ZM16.9815 14.132C16.3875 14.132 15.8339 14.0367 15.3205 13.846C14.8145 13.648 14.3745 13.3693 14.0005 13.01C13.6265 12.6507 13.3332 12.229 13.1205 11.745C12.9152 11.261 12.8125 10.7293 12.8125 10.15C12.8125 9.57067 12.9152 9.039 13.1205 8.555C13.3332 8.071 13.6265 7.64933 14.0005 7.29C14.3819 6.93067 14.8255 6.65567 15.3315 6.465C15.8375 6.267 16.3912 6.168 16.9925 6.168C17.6599 6.168 18.2612 6.28533 18.7965 6.52C19.3392 6.74733 19.7939 7.08467 20.1605 7.532L19.0165 8.588C18.7525 8.28733 18.4592 8.06367 18.1365 7.917C17.8139 7.763 17.4619 7.686 17.0805 7.686C16.7212 7.686 16.3912 7.74467 16.0905 7.862C15.7899 7.97933 15.5295 8.148 15.3095 8.368C15.0895 8.588 14.9172 8.84833 14.7925 9.149C14.6752 9.44967 14.6165 9.78333 14.6165 10.15C14.6165 10.5167 14.6752 10.8503 14.7925 11.151C14.9172 11.4517 15.0895 11.712 15.3095 11.932C15.5295 12.152 15.7899 12.3207 16.0905 12.438C16.3912 12.5553 16.7212 12.614 17.0805 12.614C17.4619 12.614 17.8139 12.5407 18.1365 12.394C18.4592 12.24 18.7525 12.009 19.0165 11.701L20.1605 12.757C19.7939 13.2043 19.3392 13.5453 18.7965 13.78C18.2612 14.0147 17.6562 14.132 16.9815 14.132ZM24.9428 14.132C24.3341 14.132 23.7695 14.033 23.2488 13.835C22.7355 13.637 22.2881 13.3583 21.9068 12.999C21.5328 12.6397 21.2395 12.218 21.0268 11.734C20.8215 11.25 20.7188 10.722 20.7188 10.15C20.7188 9.578 20.8215 9.05 21.0268 8.566C21.2395 8.082 21.5365 7.66033 21.9178 7.301C22.2991 6.94167 22.7465 6.663 23.2598 6.465C23.7731 6.267 24.3305 6.168 24.9318 6.168C25.5405 6.168 26.0978 6.267 26.6038 6.465C27.1171 6.663 27.5608 6.94167 27.9348 7.301C28.3161 7.66033 28.6131 8.082 28.8258 8.566C29.0385 9.04267 29.1448 9.57067 29.1448 10.15C29.1448 10.722 29.0385 11.2537 28.8258 11.745C28.6131 12.229 28.3161 12.6507 27.9348 13.01C27.5608 13.362 27.1171 13.637 26.6038 13.835C26.0978 14.033 25.5441 14.132 24.9428 14.132ZM24.9318 12.614C25.2765 12.614 25.5918 12.5553 25.8778 12.438C26.1711 12.3207 26.4278 12.152 26.6478 11.932C26.8678 11.712 27.0365 11.4517 27.1538 11.151C27.2785 10.8503 27.3408 10.5167 27.3408 10.15C27.3408 9.78333 27.2785 9.44967 27.1538 9.149C27.0365 8.84833 26.8678 8.588 26.6478 8.368C26.4351 8.148 26.1821 7.97933 25.8888 7.862C25.5955 7.74467 25.2765 7.686 24.9318 7.686C24.5871 7.686 24.2681 7.74467 23.9748 7.862C23.6888 7.97933 23.4358 8.148 23.2158 8.368C22.9958 8.588 22.8235 8.84833 22.6988 9.149C22.5815 9.44967 22.5228 9.78333 22.5228 10.15C22.5228 10.5093 22.5815 10.843 22.6988 11.151C22.8235 11.4517 22.9921 11.712 23.2048 11.932C23.4248 12.152 23.6815 12.3207 23.9748 12.438C24.2681 12.5553 24.5871 12.614 24.9318 12.614Z" fill="white"/>
</svg>
