<svg width="14" height="14" viewBox="0 0 14 14" fill="none" xmlns="http://www.w3.org/2000/svg">
<path fill-rule="evenodd" clip-rule="evenodd" d="M6.29237 0.533549C6.51311 -0.177851 7.48688 -0.177848 7.70763 0.533549L8.95317 4.54743C8.99412 4.67955 9.10761 4.7598 9.22582 4.7598H13.2561C13.6218 4.7598 13.8755 5.00886 13.9637 5.29344C14.0518 5.57742 13.9857 5.92695 13.6965 6.14694L10.4362 8.62733C10.3344 8.70476 10.2874 8.84739 10.3288 8.98091L11.5742 12.9944C11.6821 13.3422 11.5445 13.6673 11.3073 13.8479C11.0685 14.0296 10.7187 14.0707 10.4261 13.848L7.16526 11.3673C7.06602 11.2918 6.93398 11.2918 6.83474 11.3673L3.57392 13.848C3.28122 14.0707 2.93147 14.0296 2.69277 13.8479C2.45551 13.6673 2.31787 13.3422 2.42578 12.9944L3.67117 8.98091C3.7126 8.84739 3.66555 8.70476 3.56375 8.62733L0.303418 6.14694C0.0142547 5.92695 -0.0518018 5.57741 0.0362771 5.29344C0.124545 5.00885 0.378188 4.7598 0.743936 4.7598H4.7742C4.89238 4.7598 5.00587 4.67955 5.04687 4.54743L6.29237 0.533549Z" fill="#037847"/>
</svg>
