<svg width="14" height="14" viewBox="0 0 14 14" fill="none" xmlns="http://www.w3.org/2000/svg">
<path d="M7.23009 0.681728L7.23009 0.681733L8.47559 4.69545C8.4756 4.6955 8.47562 4.69556 8.47564 4.69561C8.5782 5.02629 8.87759 5.2598 9.22582 5.2598H13.2561C13.3194 5.2598 13.3637 5.27951 13.3983 5.30763C13.4368 5.33903 13.4691 5.38666 13.4861 5.44146L13.4861 5.4416C13.5218 5.55655 13.4909 5.67519 13.3938 5.74899L13.3938 5.749L10.1335 8.22939L10.1334 8.22943C9.85938 8.43797 9.74944 8.80114 9.85135 9.12923L11.0967 13.1426C11.1373 13.2735 11.0884 13.3861 11.0046 13.45C10.9629 13.4817 10.9146 13.4984 10.8701 13.4999C10.8302 13.5012 10.7827 13.4911 10.7288 13.4501L10.7288 13.4501L7.46803 10.9694C7.46802 10.9694 7.46801 10.9694 7.468 10.9694C7.18987 10.7578 6.81013 10.7578 6.532 10.9694C6.53199 10.9694 6.53198 10.9694 6.53197 10.9694L3.27119 13.4501L3.27117 13.4501C3.21728 13.4911 3.16973 13.5012 3.12983 13.4999C3.08535 13.4984 3.03714 13.4817 2.99556 13.45C2.91165 13.3861 2.86268 13.2736 2.90331 13.1426L2.90332 13.1426L4.14871 9.12909L3.67543 8.98223L4.14871 9.12909C4.25047 8.80113 4.14066 8.43799 3.86652 8.22941L3.8665 8.22939L0.606156 5.749L0.606151 5.749C0.509148 5.6752 0.478169 5.55654 0.513833 5.44156L0.0390902 5.29431L0.513834 5.44156C0.530849 5.3867 0.563174 5.33904 0.601743 5.30763C0.636292 5.2795 0.680597 5.2598 0.743936 5.2598H4.7742C5.1225 5.2598 5.42184 5.0262 5.52441 4.69559L6.76991 0.681728L6.29237 0.533549L6.76991 0.681727C6.84509 0.439426 7.1549 0.439422 7.23009 0.681728Z" stroke="#037847"/>
</svg>
